<svg width="16" height="16" viewBox="0 0 16 16" fill="none" xmlns="http://www.w3.org/2000/svg">
<path fill-rule="evenodd" clip-rule="evenodd" d="M1.125 5.84373C1.42337 5.84373 1.70952 5.96074 1.92049 6.16901C2.13147 6.37728 2.25 6.65975 2.25 6.95429V14.8581C2.25 15.1527 2.13147 15.4352 1.92049 15.6434C1.70952 15.8517 1.42337 15.9687 1.125 15.9687C0.826631 15.9687 0.540483 15.8517 0.329505 15.6434C0.118527 15.4352 0 15.1527 0 14.8581V6.95429C0 6.65975 0.118527 6.37728 0.329505 6.16901C0.540483 5.96074 0.826631 5.84373 1.125 5.84373ZM7.875 0.21875C8.17337 0.21875 8.45952 0.335755 8.67049 0.544025C8.88147 0.752295 9 1.03477 9 1.32931V14.8581C9 15.1527 8.88147 15.4352 8.67049 15.6434C8.45952 15.8517 8.17337 15.9687 7.875 15.9687C7.57663 15.9687 7.29048 15.8517 7.0795 15.6434C6.86853 15.4352 6.75 15.1527 6.75 14.8581V1.32931C6.75 1.03477 6.86853 0.752295 7.0795 0.544025C7.29048 0.335755 7.57663 0.21875 7.875 0.21875ZM14.625 9.21872C14.9234 9.21872 15.2095 9.33572 15.4205 9.54399C15.6315 9.75226 15.75 10.0347 15.75 10.3293V14.8581C15.75 15.1527 15.6315 15.4352 15.4205 15.6434C15.2095 15.8517 14.9234 15.9687 14.625 15.9687C14.3266 15.9687 14.0405 15.8517 13.8295 15.6434C13.6185 15.4352 13.5 15.1527 13.5 14.8581V10.3293C13.5 10.0347 13.6185 9.75226 13.8295 9.54399C14.0405 9.33572 14.3266 9.21872 14.625 9.21872Z" fill="url(#paint0_linear_1226_13217)"/>
<defs>
<linearGradient id="paint0_linear_1226_13217" x1="14.8858" y1="8.09372" x2="0" y2="8.09372" gradientUnits="userSpaceOnUse">
<stop stop-color="#8C39FF"/>
<stop offset="1" stop-color="#218BFF"/>
</linearGradient>
</defs>
</svg>
