<svg width="16" height="22" viewBox="0 0 16 22" fill="none" xmlns="http://www.w3.org/2000/svg">
<path d="M11.6034 9.15239C11.6034 9.5471 11.9237 9.86739 12.3184 9.86739C12.7131 9.86739 13.0334 9.5471 13.0334 9.15239V6.02737C13.0334 3.22015 10.7506 0.937344 7.94339 0.937344C5.13617 0.937344 2.85336 3.22015 2.85336 6.02737V9.15239C2.85336 9.5471 3.17366 9.86739 3.56836 9.86739C3.96307 9.86739 4.28337 9.5471 4.28337 9.15239V6.02737C4.28337 4.00957 5.92558 2.36735 7.94339 2.36735C9.96119 2.36735 11.6034 4.00957 11.6034 6.02737V9.15239Z" fill="#00B8B9" stroke="#00B8B9" stroke-width="0.18"/>
<mask id="path-2-outside-1_1283_3893" maskUnits="userSpaceOnUse" x="-0.556641" y="7.52734" width="17" height="14" fill="black">
<rect fill="white" x="-0.556641" y="7.52734" width="17" height="14"/>
<path fill-rule="evenodd" clip-rule="evenodd" d="M13.5684 21.0274H2.31837C1.28503 21.0274 0.443359 20.1866 0.443359 19.1524V10.4024C0.443359 9.36818 1.28503 8.52734 2.31837 8.52734H13.5684C14.6018 8.52734 15.4434 9.36818 15.4434 10.4024V19.1524C15.4434 20.1866 14.6018 21.0274 13.5684 21.0274ZM7.31934 15.0727C6.70886 14.825 6.27734 14.2258 6.27734 13.5274C6.27734 12.6082 7.02485 11.8607 7.94402 11.8607C8.86319 11.8607 9.6107 12.6082 9.6107 13.5274C9.6107 14.2255 9.17948 14.8246 8.56934 15.0724V17.0691C8.56934 17.4142 8.28934 17.6942 7.94434 17.6942C7.59934 17.6942 7.31934 17.4142 7.31934 17.0691V15.0727Z"/>
</mask>
<path fill-rule="evenodd" clip-rule="evenodd" d="M13.5684 21.0274H2.31837C1.28503 21.0274 0.443359 20.1866 0.443359 19.1524V10.4024C0.443359 9.36818 1.28503 8.52734 2.31837 8.52734H13.5684C14.6018 8.52734 15.4434 9.36818 15.4434 10.4024V19.1524C15.4434 20.1866 14.6018 21.0274 13.5684 21.0274ZM7.31934 15.0727C6.70886 14.825 6.27734 14.2258 6.27734 13.5274C6.27734 12.6082 7.02485 11.8607 7.94402 11.8607C8.86319 11.8607 9.6107 12.6082 9.6107 13.5274C9.6107 14.2255 9.17948 14.8246 8.56934 15.0724V17.0691C8.56934 17.4142 8.28934 17.6942 7.94434 17.6942C7.59934 17.6942 7.31934 17.4142 7.31934 17.0691V15.0727Z" fill="#00B8B9"/>
<path d="M7.31934 15.0727H7.49934V14.9514L7.38699 14.9059L7.31934 15.0727ZM8.56934 15.0724L8.50162 14.9056L8.38934 14.9512V15.0724H8.56934ZM2.31837 21.2074H13.5684V20.8474H2.31837V21.2074ZM0.263359 19.1524C0.263359 20.286 1.18567 21.2074 2.31837 21.2074V20.8474C1.38439 20.8474 0.623359 20.0871 0.623359 19.1524H0.263359ZM0.263359 10.4024V19.1524H0.623359V10.4024H0.263359ZM2.31837 8.34734C1.18567 8.34734 0.263359 9.26872 0.263359 10.4024H0.623359C0.623359 9.46765 1.38439 8.70734 2.31837 8.70734V8.34734ZM13.5684 8.34734H2.31837V8.70734H13.5684V8.34734ZM15.6234 10.4024C15.6234 9.26872 14.7011 8.34734 13.5684 8.34734V8.70734C14.5024 8.70734 15.2634 9.46765 15.2634 10.4024H15.6234ZM15.6234 19.1524V10.4024H15.2634V19.1524H15.6234ZM13.5684 21.2074C14.7011 21.2074 15.6234 20.286 15.6234 19.1524H15.2634C15.2634 20.0871 14.5024 20.8474 13.5684 20.8474V21.2074ZM6.09734 13.5274C6.09734 14.3017 6.5758 14.9653 7.25168 15.2395L7.38699 14.9059C6.84193 14.6848 6.45734 14.1498 6.45734 13.5274H6.09734ZM7.94402 11.6807C6.92544 11.6807 6.09734 12.5088 6.09734 13.5274H6.45734C6.45734 12.7076 7.12426 12.0407 7.94402 12.0407V11.6807ZM9.7907 13.5274C9.7907 12.5088 8.9626 11.6807 7.94402 11.6807V12.0407C8.76378 12.0407 9.4307 12.7076 9.4307 13.5274H9.7907ZM8.63707 15.2392C9.31257 14.9649 9.7907 14.3015 9.7907 13.5274H9.4307C9.4307 14.1496 9.04638 14.6844 8.50162 14.9056L8.63707 15.2392ZM8.38934 15.0724V17.0691H8.74934V15.0724H8.38934ZM8.38934 17.0691C8.38934 17.3147 8.18993 17.5142 7.94434 17.5142V17.8742C8.38875 17.8742 8.74934 17.5136 8.74934 17.0691H8.38934ZM7.94434 17.5142C7.69875 17.5142 7.49934 17.3147 7.49934 17.0691H7.13934C7.13934 17.5136 7.49993 17.8742 7.94434 17.8742V17.5142ZM7.49934 17.0691V15.0727H7.13934V17.0691H7.49934Z" fill="#00B8B9" mask="url(#path-2-outside-1_1283_3893)"/>
</svg>
