<svg width="20" height="20" viewBox="0 0 20 20" fill="none" xmlns="http://www.w3.org/2000/svg">
<path fill-rule="evenodd" clip-rule="evenodd" d="M10.5014 0.329638C9.52404 0.175313 8.64002 0.9307 8.64002 1.92015V2.29761C4.0463 2.41786 0.359375 6.17942 0.359375 10.8021C0.359375 15.5007 4.1683 19.3096 8.86689 19.3096C13.4901 19.3096 17.2521 15.6217 17.3714 11.0271H17.747C18.7364 11.0271 19.4918 10.1431 19.3375 9.16575C18.6191 4.61626 15.0509 1.04797 10.5014 0.329638ZM10.2802 1.73019C10.1635 1.71176 10.0579 1.80198 10.0579 1.92015V2.37736V3.09476V3.81217V9.37286C10.0579 9.5034 10.1637 9.60917 10.2942 9.60917H15.8564H17.2914H17.747C17.8651 9.60917 17.9553 9.50359 17.9369 9.38685C17.3144 5.44466 14.2224 2.35266 10.2802 1.73019Z" fill="#00B8B9"/>
</svg>
