<svg width="17" height="17" viewBox="0 0 17 17" fill="none" xmlns="http://www.w3.org/2000/svg">
<path d="M14.5594 8.69515L14.5291 8.9757L14.7536 9.14665L16.261 10.2945C16.2613 10.2947 16.2617 10.295 16.262 10.2953C16.3442 10.3595 16.3683 10.4672 16.3164 10.5635L14.7428 13.2171L14.7427 13.2171L14.7367 13.2278C14.7056 13.2833 14.6321 13.3335 14.5396 13.3335C14.5093 13.3335 14.4801 13.3284 14.4502 13.3173L12.6665 12.6198L12.4183 12.5228L12.1994 12.6747C11.8655 12.9064 11.5415 13.0894 11.2149 13.2333L10.962 13.3446L10.9218 13.618L10.65 15.4647L10.6499 15.4647L10.6487 15.4743C10.6392 15.5487 10.5576 15.6455 10.4196 15.6455H7.27045C7.13508 15.6455 7.05143 15.5518 7.04079 15.4679L7.04089 15.4679L7.03943 15.458L6.76832 13.618L6.728 13.3443L6.4747 13.233C6.13568 13.0842 5.80643 12.898 5.49157 12.677L5.27205 12.5229L5.02224 12.6205L3.24835 13.314C3.10265 13.3636 2.99638 13.3029 2.94948 13.2196L2.9496 13.2195L2.94373 13.2096L1.37713 10.5702C1.31928 10.4631 1.34904 10.3567 1.42581 10.2968C1.42613 10.2965 1.42645 10.2963 1.42677 10.296L2.93573 9.14739L3.15984 8.97679L3.13009 8.69672C3.10756 8.48463 3.0973 8.30739 3.0973 8.14554C3.0973 7.98363 3.10753 7.8064 3.13007 7.59525L3.15996 7.31509L2.9358 7.1444L1.42717 5.99562C1.33793 5.92606 1.32197 5.81073 1.37195 5.72848L1.37197 5.72849L1.3746 5.72406L2.94713 3.07472L2.94727 3.0748L2.95352 3.06364C2.99255 2.99386 3.1253 2.932 3.24059 2.97402L5.02359 3.67118L5.27167 3.76817L5.49056 3.6164C5.82398 3.38523 6.14854 3.2017 6.47449 3.05875L6.72804 2.94754L6.76834 2.67363L7.04012 0.826284L7.04021 0.826298L7.04143 0.816713C7.05098 0.74178 7.13242 0.645508 7.26977 0.645508H10.419C10.5544 0.645508 10.6382 0.740034 10.6487 0.822047L10.6486 0.822059L10.65 0.831709L10.9211 2.67237L10.9615 2.94654L11.2154 3.0576C11.5539 3.20566 11.8829 3.39165 12.1984 3.61329L12.4179 3.76754L12.6679 3.66984L14.4421 2.97625C14.5856 2.92707 14.6941 2.98802 14.7404 3.07036L14.7403 3.07043L14.7464 3.08071L16.3128 5.71993C16.3708 5.82766 16.3405 5.93395 16.264 5.99333C16.2638 5.99353 16.2635 5.99373 16.2632 5.99394L14.7537 7.143L14.5281 7.3147L14.5596 7.59642C14.578 7.76064 14.5921 7.94876 14.5921 8.14485C14.5921 8.34008 14.5775 8.52821 14.5594 8.69515ZM5.60592 8.14551C5.60592 9.90474 7.07058 11.3122 8.84436 11.3122C10.6181 11.3122 12.0828 9.90474 12.0828 8.14551C12.0828 6.38627 10.6181 4.97885 8.84436 4.97885C7.07058 4.97885 5.60592 6.38627 5.60592 8.14551Z" stroke="url(#paint0_linear_1283_4326)"/>
<defs>
<linearGradient id="paint0_linear_1283_4326" x1="0.0343523" y1="11.3538" x2="18.2601" y2="12.1918" gradientUnits="userSpaceOnUse">
<stop stop-color="#3F81EF"/>
<stop offset="1" stop-color="#8750F4"/>
</linearGradient>
</defs>
</svg>
