<svg width="22" height="21" viewBox="0 0 22 21" fill="none" xmlns="http://www.w3.org/2000/svg">
  <path fill-rule="evenodd" clip-rule="evenodd" d="M20.1775 11.1766C20.1775 9.99633 20.1138 6.02879 19.975 5.09478L16.0797 1.71859C15.1592 1.58501 11.6827 1.52344 10.5243 1.52344C3.28491 1.52344 0.871094 3.93726 0.871094 11.1766C0.871094 18.417 3.28491 20.8298 10.5243 20.8298C17.7647 20.8298 20.1775 18.417 20.1775 11.1766ZM15.9081 8.99212C16.128 8.70836 16.0762 8.30007 15.7924 8.08019C15.5087 7.86031 15.1004 7.9121 14.8805 8.19587L12.2245 11.6236L9.17619 9.23066C9.03973 9.12354 8.86613 9.07542 8.694 9.09699C8.52188 9.11856 8.36551 9.20803 8.25972 9.34551L5.13626 13.404C4.91731 13.6885 4.97045 14.0966 5.25493 14.3156C5.53942 14.5345 5.94754 14.4814 6.16648 14.1969L8.88968 10.6585L11.9363 13.05C12.0724 13.1569 12.2456 13.2051 12.4174 13.1838C12.5892 13.1626 12.7454 13.0737 12.8514 12.9369L15.9081 8.99212Z" fill="#00B8B9"/>
  <path fill-rule="evenodd" clip-rule="evenodd" d="M18.8417 0.790039C19.95 0.790039 20.8475 1.68753 20.8475 2.79582C20.8475 3.90306 19.95 4.80159 18.8417 4.80159C17.7334 4.80159 16.8359 3.90306 16.8359 2.79582C16.8359 1.68753 17.7334 0.790039 18.8417 0.790039Z" stroke="#00B8B9" stroke-width="1.3" stroke-linecap="round" stroke-linejoin="round"/>
</svg>
