<svg width="17" height="16" viewBox="0 0 17 16" fill="none" xmlns="http://www.w3.org/2000/svg">
<path d="M8.6543 16C13.0726 16 16.6543 12.4183 16.6543 8C16.6543 3.58172 13.0726 0 8.6543 0C4.23602 0 0.654297 3.58172 0.654297 8C0.654297 12.4183 4.23602 16 8.6543 16Z" fill="#F0B90B"/>
<path d="M5.67134 8.00006L4.44734 9.23256L3.21484 8.00006L4.44734 6.76756L5.67134 8.00006ZM8.65484 5.01656L10.7628 7.12456L11.9953 5.89206L9.88734 3.79256L8.65484 2.56006L7.42234 3.79256L5.32284 5.89206L6.55534 7.12456L8.65484 5.01656ZM12.8623 6.76756L11.6383 8.00006L12.8708 9.23256L14.0948 8.00006L12.8623 6.76756ZM8.65484 10.9836L6.54684 8.87556L5.32284 10.1081L7.43084 12.2161L8.65484 13.4401L9.88734 12.2076L11.9953 10.0996L10.7628 8.87556L8.65484 10.9836ZM8.65484 9.23256L9.88734 8.00006L8.65484 6.76756L7.42234 8.00006L8.65484 9.23256Z" fill="#FFFDFA"/>
</svg>
