<svg width="15" height="16" viewBox="0 0 15 16" fill="none" xmlns="http://www.w3.org/2000/svg">
<path d="M12.6963 14.8565H11.9137C12.0011 14.2075 12.0526 13.6218 12.0526 13.2474C12.0526 11.929 11.3993 10.925 10.4435 10.6488V10.0293H10.9193C11.5147 10.0293 12.0408 9.60714 12.1696 9.02627L12.9119 5.68742C12.9961 5.30607 12.9044 4.91292 12.6603 4.60826C12.4157 4.30361 12.0516 4.1293 11.6616 4.1293H11.4047C11.8552 3.38858 12.4833 2.85276 13.342 2.47462C13.6134 2.35502 13.7357 2.03856 13.6167 1.7677C13.497 1.49737 13.1811 1.37401 12.9097 1.49308C11.8209 1.97259 11.0105 2.68649 10.4435 3.65354V1.44749C10.4435 1.15089 10.2038 0.911133 9.90719 0.911133C9.61058 0.911133 9.37083 1.15089 9.37083 1.44749V1.98385H8.02993C6.88373 1.98385 5.69408 3.1617 5.24354 4.1293H4.00722C4.00722 3.83269 3.76747 3.59294 3.47086 3.59294H1.32542C1.02882 3.59294 0.789062 3.83269 0.789062 4.1293V9.4929C0.789062 9.78951 1.02882 10.0293 1.32542 10.0293H3.47086C3.76747 10.0293 4.00722 9.78951 4.00722 9.4929V8.95654H5.43287C5.5203 9.02627 5.60236 9.09546 5.68228 9.1625C6.19128 9.58837 6.71799 10.0293 7.76175 10.0293H9.37083V10.6488C8.41503 10.925 7.76175 11.929 7.76175 13.2474C7.76175 13.6218 7.81324 14.2075 7.90066 14.8565H7.33266C7.03605 14.8565 6.7963 15.0963 6.7963 15.3929C6.7963 15.6895 7.03605 15.9292 7.33266 15.9292H12.6963C12.9929 15.9292 13.2326 15.6895 13.2326 15.3929C13.2326 15.0963 12.9929 14.8565 12.6963 14.8565ZM2.9345 8.95654H1.86178V4.66566H2.9345V8.95654ZM7.76175 8.95654C7.10739 8.95654 6.83063 8.7243 6.37096 8.33973C6.23634 8.22709 6.09528 8.10909 5.93759 7.99163C5.84533 7.92136 5.7327 7.88382 5.61631 7.88382H4.00722V5.20202H5.61631C5.86303 5.20202 6.07758 5.03414 6.13711 4.79438C6.29105 4.17167 7.30423 3.05657 8.02993 3.05657H9.37083V4.1293H8.83447C8.53786 4.1293 8.29811 4.36905 8.29811 4.66566C8.29811 4.96226 8.53786 5.20202 8.83447 5.20202H11.6616C11.7485 5.20202 11.8005 5.25083 11.8241 5.27979C11.8472 5.30929 11.8831 5.37043 11.8644 5.45518L11.122 8.79456C11.1011 8.88789 11.0158 8.95654 10.9193 8.95654H7.76175ZM10.8308 14.8565H8.98411C8.92887 14.4655 8.88703 14.0954 8.86182 13.7838H9.50546C9.80206 13.7838 10.0418 13.544 10.0418 13.2474C10.0418 12.9508 9.80206 12.7111 9.50546 12.7111H8.89186C9.02649 12.0615 9.40462 11.6383 9.90772 11.6383C10.5396 11.6383 10.9804 12.2997 10.9804 13.2474C10.9799 13.5987 10.9225 14.2021 10.8308 14.8565Z" fill="white"/>
</svg>
