<svg width="18" height="18" viewBox="0 0 18 18" fill="none" xmlns="http://www.w3.org/2000/svg">
<path d="M9.75469 7.96612V11.0634C9.75469 11.1451 9.78715 11.2235 9.84493 11.2813C9.90271 11.3391 9.98108 11.3715 10.0628 11.3715H11.0952C11.1769 11.3715 11.2553 11.3391 11.3131 11.2813C11.3709 11.2235 11.4033 11.1451 11.4033 11.0634V7.96612C11.4033 7.8844 11.3709 7.80603 11.3131 7.74825C11.2553 7.69047 11.1769 7.65801 11.0952 7.65801H10.0628C9.98108 7.65801 9.90271 7.69047 9.84493 7.74825C9.78715 7.80603 9.75469 7.8844 9.75469 7.96612Z" fill="white" stroke="#3F81EF" stroke-width="0.1"/>
<path d="M9.03078 6.88359H7.99834C7.91663 6.88359 7.83826 6.91605 7.78048 6.97384C7.7227 7.03162 7.69023 7.10999 7.69023 7.1917V11.0633C7.69023 11.1451 7.7227 11.2234 7.78048 11.2812C7.83826 11.339 7.91663 11.3714 7.99834 11.3714H9.03078C9.11249 11.3714 9.19086 11.339 9.24864 11.2812C9.30643 11.2234 9.33889 11.1451 9.33889 11.0633V7.1917C9.33889 7.10999 9.30643 7.03162 9.24864 6.97384C9.19086 6.91605 9.11249 6.88359 9.03078 6.88359Z" fill="white" stroke="#3F81EF" stroke-width="0.1"/>
<path d="M6.96633 8.17412H5.93389C5.85217 8.17412 5.77381 8.20658 5.71602 8.26436C5.65824 8.32215 5.62578 8.40051 5.62578 8.48223V11.0633C5.62578 11.145 5.65824 11.2234 5.71602 11.2812C5.77381 11.339 5.85217 11.3714 5.93389 11.3714H6.96633C7.04804 11.3714 7.12641 11.339 7.18419 11.2812C7.24197 11.2234 7.27443 11.145 7.27443 11.0633V8.48223C7.27443 8.40051 7.24197 8.32215 7.18419 8.26436C7.12641 8.20658 7.04804 8.17412 6.96633 8.17412Z" fill="white" stroke="#3F81EF" stroke-width="0.1"/>
<path d="M13.6942 13.8523H15.9672C16.0489 13.8523 16.1273 13.8848 16.1851 13.9426C16.2428 14.0004 16.2753 14.0787 16.2753 14.1604L13.6942 13.8523ZM13.6942 13.8523V11.5794C13.6942 11.4976 13.6618 11.4193 13.604 11.3615C13.5462 11.3037 13.4678 11.2712 13.3861 11.2712H13.3861C13.3165 11.2713 13.2469 11.2739 13.1776 11.2791C13.6821 10.4339 13.9501 9.46777 13.9523 8.48217V8.48205C13.9523 8.42403 13.9483 8.3653 13.9445 8.30862C13.9437 8.29697 13.9429 8.2854 13.9422 8.27394H15.3963C15.3988 8.34353 15.401 8.41261 15.401 8.48198C15.3999 9.21554 15.2816 9.94411 15.0507 10.6402C14.7635 10.5458 14.4631 10.4974 14.1605 10.4969H14.1604C14.0787 10.4969 14.0004 10.5294 13.9426 10.5872C13.8848 10.6449 13.8523 10.7233 13.8523 10.805V13.3861C13.8523 13.4678 13.8848 13.5462 13.9426 13.604C14.0004 13.6618 14.0787 13.6942 14.1604 13.6942H16.7415C16.8233 13.6942 16.9016 13.6618 16.9594 13.604C17.0172 13.5462 17.0496 13.4678 17.0496 13.3861V13.3861C17.0491 12.8754 16.9132 12.3741 16.6559 11.933C16.4055 11.504 16.0488 11.1469 15.6205 10.8961C16.1613 9.29621 16.149 7.56057 15.5848 5.96796C15.016 4.36238 13.9199 2.99694 12.4753 2.09442C11.0307 1.19191 9.32287 0.805579 7.63048 0.998474C5.93808 1.19137 4.36101 1.9521 3.15655 3.15655C1.9521 4.36101 1.19137 5.93808 0.998474 7.63048C0.805579 9.32287 1.19191 11.0307 2.09442 12.4753C2.99694 13.9199 4.36238 15.016 5.96796 15.5848C7.56056 16.149 9.29619 16.1613 10.896 15.6205L13.6942 13.8523ZM13.3249 8.14404C13.4069 9.34901 13.0378 10.5412 12.2898 11.489C11.7109 11.7286 11.225 12.1491 10.9047 12.6876C9.85924 13.2917 8.62636 13.4857 7.44567 13.2315C6.26074 12.9764 5.21368 12.2882 4.50943 11.3017C3.80518 10.3152 3.49444 9.10139 3.63802 7.89784C3.78161 6.69429 4.3692 5.58765 5.28577 4.79453C6.20233 4.0014 7.3819 3.57889 8.5936 3.60968C9.80529 3.64048 10.9619 4.12237 11.837 4.96103C12.7121 5.79969 13.2427 6.93475 13.3249 8.14404ZM1.56312 8.482C1.56155 7.13174 1.95752 5.81137 2.70096 4.68529L3.75632 5.74065C3.10992 6.84623 2.87373 8.14474 3.0901 9.40786C3.30557 10.6658 3.95598 11.8074 4.92683 12.634L3.90068 13.6602C3.17197 13.0177 2.58696 12.2284 2.18409 11.344C1.77479 10.4454 1.56303 9.46947 1.56312 8.48206L1.51312 8.48205L1.56312 8.482ZM8.482 15.401C7.00519 15.4027 5.56753 14.9293 4.38104 14.0517L5.42071 13.012C6.17586 13.5243 7.04761 13.8392 7.95627 13.9275C8.84549 14.014 9.74181 13.8808 10.5667 13.5403C10.453 14.0409 10.4781 14.5635 10.6398 15.0515C9.94377 15.282 9.21536 15.4 8.482 15.401ZM13.5137 14.4686H15.6384C15.5863 14.8523 15.4368 15.2167 15.2039 15.5268C14.9597 15.8518 14.6327 16.1053 14.2571 16.2608C13.8814 16.4163 13.471 16.468 13.0685 16.4106C12.6845 16.3559 12.3212 16.2037 12.0132 15.9691L13.5137 14.4686ZM13.078 14.0329L11.5775 15.5334C11.3428 15.2254 11.1906 14.8621 11.1359 14.4781C11.0785 14.0757 11.1303 13.6652 11.2857 13.2896C11.4412 12.914 11.6947 12.587 12.0198 12.3428C12.3299 12.1099 12.6943 11.9605 13.078 11.9085V14.0329ZM13.8836 7.65773C13.724 6.59787 13.2558 5.60809 12.537 4.81218C11.8085 4.00553 10.8557 3.43474 9.80079 3.17293C8.74586 2.91113 7.6368 2.97024 6.61567 3.34269C5.61287 3.70846 4.73974 4.36005 4.10386 5.21633L3.0684 4.18136C3.91233 3.11707 5.05132 2.32467 6.34337 1.90358C7.64945 1.47792 9.05273 1.45098 10.3742 1.8262C11.6956 2.20143 12.8754 2.9618 13.7629 4.01031C14.6383 5.04461 15.1903 6.31303 15.3508 7.65773H13.8836ZM14.4686 13.078V11.1343C14.9596 11.2022 15.4156 11.4286 15.7669 11.7798C16.1181 12.131 16.3446 12.587 16.4125 13.078H14.4686Z" fill="white" stroke="#3F81EF" stroke-width="0.1"/>
</svg>
