<svg width="16" height="17" viewBox="0 0 16 17" fill="none" xmlns="http://www.w3.org/2000/svg">
<path d="M14.5537 10.5645C14.9179 9.31909 14.9175 7.98287 14.5525 6.73143C15.1579 6.2308 15.333 5.35002 14.9274 4.64746C14.5221 3.94537 13.6726 3.65655 12.9366 3.92965C12.0402 2.99146 10.8828 2.32368 9.6165 2.01412C9.48562 1.23949 8.8104 0.647461 7.99915 0.647461C7.1884 0.647461 6.51356 1.23871 6.38212 2.01259C5.12149 2.31977 3.96456 2.98818 3.06331 3.92996C2.74612 3.8113 2.40084 3.79362 2.06715 3.88302C1.64384 3.99646 1.29006 4.26793 1.07096 4.64746C0.665586 5.34959 0.840211 6.22965 1.44468 6.73043C1.0804 7.9758 1.08081 9.31202 1.44587 10.5635C0.84043 11.0641 0.665305 11.9449 1.07093 12.6475C1.29006 13.027 1.64384 13.2985 2.06712 13.4119C2.20846 13.4497 2.3519 13.4685 2.4944 13.4685C2.68774 13.4685 2.87918 13.4331 3.06152 13.3652C3.95793 14.3034 5.11543 14.9712 6.38181 15.2808C6.51268 16.0554 7.18787 16.6475 7.99915 16.6475C8.80987 16.6475 9.48475 16.0562 9.61618 15.2823C10.8767 14.9751 12.0336 14.3068 12.9348 13.3651C13.1202 13.4341 13.3128 13.4675 13.5037 13.4674C14.0712 13.4674 14.6238 13.1731 14.9273 12.6474C15.3327 11.9454 15.1581 11.0653 14.5537 10.5645ZM14.1155 5.11621C14.3093 5.45196 14.1939 5.88284 13.8581 6.07671C13.5224 6.27055 13.0915 6.15515 12.8976 5.81937C12.7038 5.48359 12.8192 5.05271 13.155 4.85887C13.2654 4.79509 13.3861 4.7648 13.5054 4.7648C13.7485 4.76477 13.9854 4.89093 14.1155 5.11621ZM7.99915 1.58496C8.38684 1.58496 8.70228 1.90037 8.70228 2.28809C8.70228 2.6758 8.38684 2.99121 7.99915 2.99121C7.61143 2.99121 7.29603 2.6758 7.29603 2.28809C7.29603 1.90037 7.61143 1.58496 7.99915 1.58496ZM1.88287 5.11621C1.97674 4.95355 2.12837 4.83721 2.30981 4.78862C2.37037 4.77237 2.43184 4.76437 2.49293 4.76437C2.61474 4.76437 2.73502 4.7963 2.84334 4.85887C3.17912 5.05274 3.29456 5.48362 3.10071 5.81937C2.90684 6.15512 2.47596 6.27052 2.14021 6.07674C1.80446 5.88284 1.68899 5.45199 1.88287 5.11621ZM2.30981 12.5063C2.1284 12.4577 1.97677 12.3414 1.88287 12.1787C1.68902 11.8429 1.80446 11.4121 2.14021 11.2182C2.47602 11.0243 2.90687 11.1398 3.10071 11.4756C3.29456 11.8113 3.17912 12.2422 2.84334 12.436C2.68071 12.53 2.49121 12.5549 2.30981 12.5063ZM7.99915 15.71C7.61143 15.71 7.29603 15.3946 7.29603 15.0068C7.29603 14.6191 7.61143 14.3037 7.99915 14.3037C8.38684 14.3037 8.70228 14.6191 8.70228 15.0068C8.70228 15.3946 8.38684 15.71 7.99915 15.71ZM9.49975 14.3448C9.24475 13.7691 8.66828 13.3662 7.99915 13.3662C7.33056 13.3662 6.75446 13.7684 6.49915 14.3434C5.48281 14.0751 4.55265 13.5387 3.81602 12.7963C3.93427 12.6346 4.02309 12.4511 4.07649 12.2518C4.1899 11.8285 4.13171 11.3864 3.91259 11.0068C3.57827 10.4278 2.94193 10.1301 2.31631 10.1965C2.04043 9.1819 2.0399 8.10793 2.31474 7.09862C2.37281 7.10484 2.43099 7.10809 2.48899 7.10809C3.0564 7.10809 3.60906 6.8138 3.91259 6.28809C4.13171 5.90855 4.18993 5.46646 4.07649 5.04315C4.02321 4.84437 3.93471 4.66121 3.8169 4.49984C4.55756 3.75393 5.48721 3.21668 6.49853 2.95015C6.75356 3.52587 7.33003 3.92871 7.99915 3.92871C8.66775 3.92871 9.24381 3.52649 9.49915 2.95149C10.5158 3.2199 11.4462 3.75649 12.1829 4.49924C11.8118 5.00793 11.7512 5.70859 12.0857 6.28809C12.3892 6.81384 12.9418 7.10805 13.5093 7.10805C13.5668 7.10805 13.6245 7.10484 13.6821 7.09874C13.9579 8.1133 13.9584 9.18727 13.6835 10.1966C13.0574 10.1296 12.4203 10.4273 12.0857 11.0068C11.7514 11.5859 11.8117 12.2859 12.182 12.7945C11.4413 13.5407 10.5114 14.0782 9.49975 14.3448ZM14.1155 12.1787C13.9216 12.5145 13.4908 12.6299 13.155 12.4361C12.8192 12.2422 12.7038 11.8114 12.8976 11.4756C13.0277 11.2503 13.2645 11.1241 13.5077 11.1241C13.6269 11.1241 13.7477 11.1545 13.8581 11.2182C14.1939 11.4121 14.3093 11.843 14.1155 12.1787Z" fill="white"/>
<path d="M4.68945 6.73596V10.5585L7.99986 12.4697L11.3103 10.5585V6.73596L7.99986 4.82471L4.68945 6.73596ZM9.90402 7.00658L7.99986 8.10596L6.0957 7.00658L7.99986 5.90721L9.90402 7.00658ZM5.62695 7.81849L7.53111 8.91783V11.1166L5.62695 10.0172V7.81849ZM8.46861 11.1166V8.91783L10.3728 7.81849V10.0172L8.46861 11.1166Z" fill="white"/>
</svg>
