<svg width="13" height="16" viewBox="0 0 13 16" fill="none" xmlns="http://www.w3.org/2000/svg">
<path d="M2.28858 15.0536H10.02C10.7799 15.0536 11.3986 14.4354 11.3986 13.675V7.66162C11.3986 6.90117 10.7799 6.28305 10.02 6.28305H2.28858C1.52875 6.28305 0.91 6.90117 0.91 7.66162V13.675C0.91 14.4354 1.52875 15.0536 2.28858 15.0536ZM1.94905 7.66162C1.94905 7.47431 2.10168 7.3221 2.28858 7.3221H10.02C10.2069 7.3221 10.3596 7.47431 10.3596 7.66162V13.675C10.3596 13.8623 10.2069 14.0145 10.02 14.0145H2.28858C2.10168 14.0145 1.94905 13.8623 1.94905 13.675V7.66162Z" fill="white" stroke="white" stroke-width="0.18"/>
<path d="M8.64211 6.80258C8.64211 7.08939 8.87483 7.32211 9.16163 7.32211C9.44844 7.32211 9.68116 7.08939 9.68116 6.80258V4.65495C9.68116 2.71018 8.09973 1.12875 6.15495 1.12875C4.21018 1.12875 2.62875 2.71018 2.62875 4.65495V6.80258C2.62875 7.08939 2.86147 7.32211 3.14828 7.32211C3.43508 7.32211 3.6678 7.08939 3.6678 6.80258V4.65495C3.6678 3.28379 4.78379 2.1678 6.15495 2.1678C7.52612 2.1678 8.64211 3.28379 8.64211 4.65495V6.80258Z" fill="white" stroke="white" stroke-width="0.18"/>
<path d="M4.91977 9.80946C4.91977 10.4909 5.47377 11.0449 6.15517 11.0449C6.83656 11.0449 7.39057 10.4909 7.39057 9.80946C7.39057 9.12807 6.83656 8.57406 6.15517 8.57406C5.47377 8.57406 4.91977 9.12807 4.91977 9.80946Z" fill="white" stroke="white" stroke-width="0.18"/>
<path d="M5.63461 12.2432C5.63461 12.53 5.86733 12.7627 6.15413 12.7627C6.44094 12.7627 6.67366 12.53 6.67366 12.2432V10.6683C6.67366 10.3815 6.44094 10.1488 6.15413 10.1488C5.86733 10.1488 5.63461 10.3815 5.63461 10.6683V12.2432Z" fill="white" stroke="white" stroke-width="0.18"/>
</svg>
