<svg width="14" height="15" viewBox="0 0 14 15" fill="none" xmlns="http://www.w3.org/2000/svg">
<path d="M3.41259 7.896H2.03104C1.90387 7.896 1.80078 8.11985 1.80078 8.396V13.396C1.80078 13.6721 1.90387 13.896 2.03104 13.896H3.41259C3.53975 13.896 3.64284 13.6721 3.64284 13.396V8.396C3.64284 8.11985 3.53975 7.896 3.41259 7.896Z" fill="white"/>
<path d="M11.3262 5.3252H9.82617C9.6881 5.3252 9.57617 5.51706 9.57617 5.75373V13.4673C9.57617 13.704 9.6881 13.8958 9.82617 13.8958H11.3262C11.4642 13.8958 11.5762 13.704 11.5762 13.4673V5.75373C11.5762 5.51706 11.4642 5.3252 11.3262 5.3252Z" fill="white"/>
<path d="M7.20508 2.34424H5.70508C5.56701 2.34424 5.45508 2.52895 5.45508 2.7568V13.4834C5.45508 13.7113 5.56701 13.896 5.70508 13.896H7.20508C7.34315 13.896 7.45508 13.7113 7.45508 13.4834V2.7568C7.45508 2.52895 7.34315 2.34424 7.20508 2.34424Z" fill="white"/>
</svg>
