<svg width="15" height="15" viewBox="0 0 15 15" fill="none" xmlns="http://www.w3.org/2000/svg">
<path d="M13.9589 8.70886L12.4357 5.66543C12.3846 5.56332 12.2943 5.48885 12.1884 5.45658L8.08463 3.40765C7.96928 3.35 7.83352 3.35 7.71814 3.40765L6.17625 4.17747V3.82651C6.33547 3.77015 6.44973 3.61867 6.44973 3.44014C6.44973 3.25184 6.3227 3.09355 6.14977 3.04534C5.95623 1.60395 4.71842 0.48877 3.22488 0.48877C1.73134 0.48877 0.493526 1.60395 0.299956 3.04534C0.127033 3.09355 0 3.25182 0 3.44014C0 3.61867 0.114261 3.77015 0.273482 3.82651V5.78858C0.114261 5.84495 0 5.99643 0 6.17496C0 6.35349 0.114261 6.50497 0.273482 6.56134V8.52341C0.114261 8.57977 0 8.73125 0 8.90978C0 9.08831 0.114261 9.23979 0.273482 9.29616V11.2582C0.114261 11.3146 0 11.4661 0 11.6446C0 11.8231 0.114261 11.9746 0.273482 12.031V14.0785C0.273482 14.3051 0.457153 14.4888 0.683706 14.4888H12.8765C13.1031 14.4888 13.2867 14.3051 13.2867 14.0785V9.16626C13.3651 9.2538 13.4771 9.30275 13.5924 9.30275C13.6541 9.30275 13.7167 9.28878 13.7757 9.25929C13.9783 9.15789 14.0603 8.91145 13.9589 8.70886ZM3.56345 5.48201C3.48493 5.52128 3.41913 5.58689 3.37986 5.66543L3.33017 5.76474H1.09393V3.85036H5.3558V4.58712L3.56345 5.48201ZM2.51604 9.32001V11.2344H1.09393V9.32001H2.51604ZM1.96144 8.49956H1.09393V6.58518H2.91953L1.96144 8.49956ZM3.22485 1.30922C4.25952 1.30922 5.12394 2.05057 5.31576 3.02991H1.13394C1.32576 2.05057 2.19018 1.30922 3.22485 1.30922ZM1.09393 12.0548H2.51604V13.6683H1.09393V12.0548ZM9.93756 13.1581L8.53137 11.9298L9.93756 10.7016V13.1581ZM9.27458 13.6683H6.54102L7.9078 12.4745L9.27458 13.6683ZM7.9078 11.3852L6.56104 10.2089H9.25454L7.9078 11.3852ZM7.28423 11.9298L5.87804 13.1581V10.7016L7.28423 11.9298ZM10.758 13.6683V9.79863C10.758 9.57549 10.5711 9.38841 10.3478 9.38841H5.46782C5.24455 9.38841 5.05759 9.57549 5.05759 9.79863V13.6683H3.33649V7.58525L4.05233 6.15491L7.90137 4.23315L11.7675 6.16345L12.4663 7.5596V13.6683H10.758Z" fill="white"/>
<path d="M7.90699 5.50293C7.05793 5.50293 6.36719 6.19367 6.36719 7.04273C6.36719 7.89179 7.05793 8.58256 7.90699 8.58256C8.75605 8.58256 9.44679 7.89179 9.44679 7.04273C9.44679 6.19367 8.75605 5.50293 7.90699 5.50293ZM7.90699 7.76208C7.51035 7.76208 7.18764 7.43936 7.18764 7.0427C7.18764 6.64607 7.51035 6.32336 7.90699 6.32336C8.30365 6.32336 8.62633 6.64607 8.62633 7.0427C8.62636 7.43936 8.30365 7.76208 7.90699 7.76208Z" fill="white"/>
</svg>
