<svg width="16" height="17" viewBox="0 0 16 17" fill="none" xmlns="http://www.w3.org/2000/svg">
<path fill-rule="evenodd" clip-rule="evenodd" d="M8.47304 1.45229C7.75291 1.33857 7.10153 1.89517 7.10153 2.62424V2.90237C3.71668 2.99098 1 5.76265 1 9.16884C1 12.631 3.80658 15.4375 7.26869 15.4375C10.6753 15.4375 13.4473 12.7201 13.5352 9.33462H13.8119C14.541 9.33462 15.0975 8.68323 14.9839 7.9631C14.4545 4.61085 11.8253 1.98158 8.47304 1.45229ZM7.10153 8.11571C7.10153 8.78889 7.64725 9.33462 8.32043 9.33462H12.4899C12.4024 12.143 10.0982 14.3927 7.26869 14.3927C4.38359 14.3927 2.04478 12.0539 2.04478 9.16884C2.04478 6.3397 4.29379 4.03584 7.10153 3.94759V8.11571ZM8.31006 2.48428C8.2241 2.47069 8.1463 2.53717 8.1463 2.62424V2.96113V3.48975V4.01836V8.11571C8.1463 8.2119 8.22424 8.28984 8.32043 8.28984H12.4189H13.4762H13.8119C13.899 8.28984 13.9654 8.21204 13.9518 8.12602C13.4932 5.22125 11.2149 2.94293 8.31006 2.48428Z" fill="white"/>
</svg>
