<svg width="18" height="17" viewBox="0 0 18 17" fill="none" xmlns="http://www.w3.org/2000/svg">
<path d="M11.2641 9.7571C10.8446 9.7571 10.5262 9.4642 10.5262 9.13059C10.5262 8.79694 10.8446 8.50404 11.2641 8.50404C11.6835 8.50404 12.0019 8.79694 12.0019 9.13059C12.0019 9.38809 12.2107 9.59689 12.4682 9.59689C12.7257 9.59689 12.9345 9.38809 12.9345 9.13059C12.9345 8.41768 12.4213 7.8214 11.7304 7.63358V7.50814C11.7304 7.25064 11.5215 7.04184 11.2641 7.04184C11.0066 7.04184 10.7978 7.25064 10.7978 7.50814V7.63358C10.1068 7.8214 9.59359 8.41768 9.59359 9.13059C9.59359 9.99643 10.3492 10.6897 11.2641 10.6897C11.6835 10.6897 12.0019 10.9826 12.0019 11.3162C12.0019 11.6499 11.6835 11.9428 11.2641 11.9428C10.8446 11.9428 10.5262 11.6499 10.5262 11.3162C10.5262 11.0587 10.3174 10.8499 10.0599 10.8499C9.80239 10.8499 9.59359 11.0587 9.59359 11.3162C9.59359 12.0292 10.1068 12.6254 10.7978 12.8133V12.9055C10.7978 13.163 11.0066 13.3718 11.2641 13.3718C11.5215 13.3718 11.7304 13.163 11.7304 12.9055V12.8133C12.4213 12.6254 12.9345 12.0292 12.9345 11.3162C12.9345 10.4504 12.1789 9.7571 11.2641 9.7571Z" fill="white" stroke="white" stroke-width="0.18"/>
<path d="M15.7758 10.2352C15.7758 8.18035 14.3944 6.44278 12.512 5.90088C12.5046 5.88493 12.497 5.86916 12.4891 5.8536H13.008C13.7171 5.8536 14.2939 5.27682 14.2939 4.56771C14.2939 3.8586 13.7171 3.28182 13.008 3.28182H11.0846C11.175 3.10603 11.2262 2.9068 11.2262 2.69589C11.2262 1.98678 10.6494 1.41 9.94029 1.41H3.57089C2.86178 1.41 2.285 1.98678 2.285 2.69589C2.285 3.40499 2.86178 3.98177 3.57089 3.98177H5.49432C5.4039 4.15757 5.35271 4.35679 5.35271 4.56771C5.35271 4.77862 5.40388 4.97785 5.49431 5.15365H4.97475C4.26565 5.15365 3.68887 5.73043 3.68887 6.43953C3.68887 6.8083 3.84508 7.141 4.09423 7.37545C3.84508 7.60989 3.68887 7.94259 3.68887 8.31136C3.68887 8.68012 3.84508 9.01282 4.09423 9.24727C3.84508 9.48172 3.68887 9.81441 3.68887 10.1832C3.68887 10.5519 3.84508 10.8846 4.09423 11.1191C3.84508 11.3535 3.68887 11.6862 3.68887 12.055C3.68887 12.7641 4.26565 13.3409 4.97475 13.3409H7.99973C8.82161 14.2049 9.98193 14.7448 11.2662 14.7448C13.7529 14.7448 15.7758 12.7219 15.7758 10.2352ZM13.008 3.98177C13.331 3.98177 13.5939 4.24471 13.5939 4.56771C13.5939 4.89071 13.331 5.15365 13.008 5.15365H11.3442H6.6386C6.31558 5.15365 6.05266 4.89071 6.05266 4.56771C6.05266 4.24471 6.31558 3.98177 6.6386 3.98177H13.008ZM3.57089 3.28182C3.24787 3.28182 2.98495 3.01888 2.98495 2.69589C2.98495 2.37289 3.24787 2.10995 3.57089 2.10995H9.94029C10.2633 2.10995 10.5262 2.37289 10.5262 2.69589C10.5262 3.01888 10.2633 3.28182 9.94029 3.28182H3.57089ZM4.97475 5.8536H10.1973C9.3931 6.04982 8.67271 6.46229 8.10158 7.02547H4.97475C4.65176 7.02547 4.38882 6.76253 4.38882 6.43953C4.38882 6.11654 4.65176 5.8536 4.97475 5.8536ZM4.97475 7.72542H7.52154C7.28101 8.08316 7.09032 8.47709 6.95951 8.89729H4.97475C4.65173 8.89729 4.38882 8.63438 4.38882 8.31136C4.38882 7.98836 4.65174 7.72542 4.97475 7.72542ZM4.97475 9.59725H6.80192C6.77219 9.80568 6.7566 10.0186 6.7566 10.2352C6.7566 10.4159 6.76753 10.594 6.78836 10.7691H4.97475C4.65173 10.7691 4.38882 10.5062 4.38882 10.1832C4.38882 9.86016 4.65173 9.59725 4.97475 9.59725ZM4.97475 12.6409C4.65173 12.6409 4.38882 12.378 4.38882 12.055C4.38882 11.732 4.65173 11.4691 4.97475 11.4691H6.92851C7.04774 11.8876 7.22595 12.2814 7.4536 12.6409H4.97475ZM11.2662 14.0448C9.16564 14.0448 7.45655 12.3358 7.45655 10.2352C7.45655 8.13465 9.16564 6.42557 11.2662 6.42557C13.3667 6.42557 15.0758 8.13465 15.0758 10.2352C15.0758 12.3358 13.3667 14.0448 11.2662 14.0448Z" fill="white" stroke="white" stroke-width="0.18"/>
</svg>
