<svg width="14" height="16" viewBox="0 0 14 16" fill="none" xmlns="http://www.w3.org/2000/svg">
<path d="M11.4543 7.85138C11.4009 7.79675 11.3371 7.75331 11.2667 7.72358C11.1963 7.69385 11.1207 7.67843 11.0442 7.67822C10.9678 7.67802 10.8921 7.69302 10.8215 7.72237C10.751 7.75171 10.687 7.79481 10.6332 7.84914C10.5795 7.90348 10.5371 7.96797 10.5085 8.03885C10.48 8.10974 10.4658 8.1856 10.4669 8.26201C10.4679 8.33843 10.4842 8.41387 10.5147 8.48394C10.5452 8.55401 10.5893 8.61731 10.6445 8.67015C11.1331 9.15091 11.5207 9.72441 11.7846 10.357C12.0486 10.9896 12.1835 11.6685 12.1815 12.354C12.1815 13.0583 10.1625 14.0816 6.99864 14.0816C3.83476 14.0816 1.81583 13.0578 1.81583 12.3528C1.81389 11.6721 1.94699 10.9977 2.20744 10.3688C2.46788 9.73986 2.8505 9.16882 3.33312 8.68875C3.38771 8.63553 3.43119 8.572 3.46103 8.50184C3.49087 8.43169 3.50649 8.35631 3.50697 8.28007C3.50746 8.20383 3.4928 8.12826 3.46385 8.05773C3.43489 7.98721 3.39223 7.92313 3.33832 7.86922C3.28441 7.81531 3.22033 7.77265 3.14981 7.74369C3.07928 7.71474 3.0037 7.70008 2.92747 7.70057C2.85123 7.70105 2.77585 7.71666 2.70569 7.74651C2.63554 7.77635 2.57201 7.81983 2.51879 7.87441C1.92877 8.46133 1.46103 9.15947 1.14267 9.92839C0.82431 10.6973 0.661643 11.5218 0.66409 12.354C0.66409 14.2242 3.92754 15.2333 6.99864 15.2333C10.0697 15.2333 13.3332 14.2242 13.3332 12.354C13.3358 11.5161 13.1709 10.6863 12.8482 9.91304C12.5256 9.13982 12.0516 8.43888 11.4543 7.85138Z" fill="white"/>
<path d="M6.99787 8.3229C7.79515 8.3229 8.57451 8.08648 9.23742 7.64354C9.90033 7.2006 10.417 6.57103 10.7221 5.83445C11.0272 5.09786 11.107 4.28735 10.9515 3.5054C10.796 2.72344 10.412 2.00518 9.84828 1.44142C9.28452 0.877663 8.56625 0.49374 7.7843 0.3382C7.00235 0.18266 6.19183 0.262489 5.45525 0.567591C4.71866 0.872694 4.0891 1.38937 3.64616 2.05227C3.20322 2.71518 2.9668 3.49455 2.9668 4.29182C2.96803 5.36055 3.39313 6.38515 4.14884 7.14086C4.90454 7.89657 5.92915 8.32166 6.99787 8.3229ZM6.99787 1.41248C7.56735 1.41248 8.12405 1.58135 8.59755 1.89774C9.07106 2.21412 9.44011 2.66381 9.65804 3.18995C9.87597 3.71608 9.93299 4.29502 9.82189 4.85355C9.71079 5.41209 9.43656 5.92514 9.03388 6.32782C8.63119 6.73051 8.11814 7.00474 7.55961 7.11584C7.00107 7.22694 6.42213 7.16992 5.896 6.95199C5.36987 6.73406 4.92018 6.365 4.60379 5.8915C4.2874 5.41799 4.11853 4.8613 4.11853 4.29182C4.11943 3.52845 4.42308 2.7966 4.96287 2.25681C5.50265 1.71703 6.2345 1.41338 6.99787 1.41248Z" fill="white"/>
</svg>
