<svg width="14" height="14" viewBox="0 0 14 14" fill="none" xmlns="http://www.w3.org/2000/svg">
<path d="M12.3829 2.6698C12.3106 1.73702 11.5291 1 10.5781 1H2.10576C1.10726 1 0.294922 1.81234 0.294922 2.81084V11.1892C0.294922 12.1877 1.10726 13 2.10576 13H11.8934C12.8919 13 13.7043 12.1877 13.7043 11.1892V4.41286C13.7043 3.584 13.1443 2.88393 12.3829 2.6698ZM2.10576 1.84594H10.5781C11.0385 1.84594 11.4243 2.17006 11.52 2.60205H2.10576C1.75123 2.60205 1.42044 2.70486 1.14086 2.88166V2.81084C1.14086 2.27879 1.57372 1.84594 2.10576 1.84594ZM11.52 11.8447H2.43756C1.90552 11.8447 1.47266 11.4119 1.47266 10.8798V4.91773C1.47266 4.38569 1.90552 3.95283 2.43756 3.95283H11.52C12.0521 3.95283 12.4849 4.38569 12.4849 4.91773V5.88897H10.1612C9.09244 5.88897 8.22292 6.75851 8.22292 7.8273C8.22292 8.89609 9.09246 9.76564 10.1612 9.76564H12.4849V10.8798C12.4849 11.4119 12.052 11.8447 11.52 11.8447ZM12.4849 8.9197H10.1612C9.55889 8.9197 9.06886 8.42966 9.06886 7.8273C9.06886 7.22494 9.55889 6.7349 10.1612 6.7349H12.4849V8.9197Z" fill="white"/>
</svg>
